<?xml version="1.0" encoding="utf-8"?>
<!-- Generator: Adobe Illustrator 18.1.0, SVG Export Plug-In . SVG Version: 6.00 Build 0)  -->
<svg version="1.1" xmlns="http://www.w3.org/2000/svg" xmlns:xlink="http://www.w3.org/1999/xlink" x="0px" y="0px"
	 viewBox="0 0 320 350" enable-background="new 0 0 320 350" xml:space="preserve">
<g id="Layer_2" display="none">
	<rect x="-165.3" y="-65.2" display="inline" fill="#626572" width="640" height="480"/>
</g>
<g id="Layer_1">
	<path fill="#FFFFFF" stroke="#FFFFFF" stroke-miterlimit="10" d="M288.6,70.7L188.6,13c-7.4-4.3-17.2-6.4-27-6.4
		c-9.8,0-19.6,2.1-27,6.4l-100,57.7c-14.8,8.6-27,29.6-27,46.7v115.4c0,17.1,12.1,38.2,27,46.7l100,57.7c7.4,4.3,17.2,6.4,27,6.4
		c9.8,0,19.6-2.1,27-6.4l100-57.7c14.8-8.6,27-29.6,27-46.7V117.5C315.6,100.3,303.4,79.3,288.6,70.7z"/>
	
		<text transform="matrix(1 0 0 1 50.8213 216.3072)" fill="#202126" font-family="'RobotoSlab-Bold'" font-size="160.8077" letter-spacing="-10">cgr</text>
</g>
</svg>
