<?xml version="1.0" encoding="utf-8"?>
<!-- Generator: Adobe Illustrator 18.1.0, SVG Export Plug-In . SVG Version: 6.00 Build 0)  -->
<svg version="1.1" xmlns="http://www.w3.org/2000/svg" xmlns:xlink="http://www.w3.org/1999/xlink" x="0px" y="0px"
	 viewBox="0 0 320 350" enable-background="new 0 0 320 350" xml:space="preserve">
<g id="Layer_2" display="none">
	<rect x="-165.3" y="-65.2" display="inline" fill="#626572" width="640" height="480"/>
</g>
<g id="Layer_1">
	<path fill="#FFFFFF" d="M286.2,71l-99.4-57.4c-7.4-4.3-17.1-6.4-26.8-6.4c-9.7,0-19.4,2.1-26.8,6.4L33.8,71
		C19,79.5,7,100.4,7,117.5v114.8c0,17,12.1,37.9,26.8,46.5l99.4,57.4c7.4,4.3,17.1,6.4,26.8,6.4c9.7,0,19.4-2.1,26.8-6.4l99.4-57.4
		c14.8-8.5,26.8-29.4,26.8-46.5V117.5C313,100.4,301,79.5,286.2,71z"/>
	
		<text transform="matrix(1 0 0 1 40.6574 211.2451)" fill="#202126" font-family="'RobotoSlab-Bold'" font-size="159.8541" letter-spacing="-10">cgr</text>
</g>
</svg>
