<?xml version="1.0" encoding="utf-8"?>
<!-- Generator: Adobe Illustrator 18.1.0, SVG Export Plug-In . SVG Version: 6.00 Build 0)  -->
<svg version="1.1" xmlns="http://www.w3.org/2000/svg" xmlns:xlink="http://www.w3.org/1999/xlink" x="0px" y="0px"
	 viewBox="0 0 80 80" enable-background="new 0 0 80 80" xml:space="preserve">
<g id="logo">
	<path id="badge" fill="#FFFFFF" stroke="#FFFFFF" stroke-miterlimit="10" d="M63.3,68.5l12.9-22.3c1-1.7,1.4-3.8,1.4-6
		c0-2.2-0.5-4.4-1.4-6L63.3,11.9c-1.9-3.3-6.6-6-10.4-6H27.1c-3.8,0-8.5,2.7-10.4,6L3.8,34.2c-1,1.7-1.4,3.8-1.4,6
		c0,2.2,0.5,4.4,1.4,6l12.9,22.3c1.9,3.3,6.6,6,10.4,6h25.8C56.7,74.5,61.4,71.8,63.3,68.5z"/>
	<g id="thick">
		<path fill="#202126" d="M21.9,45.8c0.9,0,1.6-0.3,2.2-0.8c0.5-0.5,0.8-1.2,0.8-2.1h4.6l0.1,0.1c0,1.9-0.7,3.5-2.2,4.8
			c-1.5,1.3-3.3,1.9-5.5,1.9c-2.8,0-5-0.9-6.5-2.7c-1.5-1.8-2.3-4.1-2.3-6.9v-0.5c0-2.8,0.8-5.1,2.4-6.9c1.6-1.8,3.8-2.7,6.7-2.7
			c1.5,0,2.9,0.2,4.1,0.7c1.2,0.5,2.2,1.1,3,1.9l0.1,5.1h-4.2l-0.8-3c-0.3-0.2-0.6-0.4-0.9-0.6C23,34.1,22.6,34,22.1,34
			c-1.4,0-2.5,0.5-3.1,1.6c-0.6,1.1-0.9,2.4-0.9,4.1v0.5c0,1.7,0.3,3.1,0.8,4.1C19.5,45.3,20.5,45.8,21.9,45.8z"/>
		<path fill="#202126" d="M31.6,40.1c0-3,0.7-5.4,2-7.2c1.3-1.8,3.1-2.8,5.5-2.8c1.1,0,2,0.2,2.8,0.7s1.5,1.1,2.1,2l0.4-2.4h4.4
			v18.4c0,2.5-0.8,4.5-2.4,6c-1.6,1.5-3.7,2.2-6.5,2.2c-1,0-2-0.1-3-0.4s-2.1-0.6-3-1.1l0.9-3.6c0.8,0.3,1.6,0.6,2.5,0.8
			c0.8,0.2,1.7,0.3,2.6,0.3c1.2,0,2.2-0.4,2.8-1.1c0.6-0.8,0.9-1.8,0.9-3.2v-1.2c-0.6,0.7-1.2,1.3-2,1.6c-0.8,0.4-1.6,0.6-2.6,0.6
			c-2.3,0-4.1-0.9-5.4-2.6c-1.3-1.7-2-4-2-6.8V40.1z M36.8,40.4c0,1.7,0.3,3,0.8,3.9c0.6,1,1.5,1.4,2.7,1.4c0.8,0,1.4-0.1,2-0.4
			c0.5-0.3,1-0.7,1.3-1.3v-8.2c-0.3-0.6-0.8-1-1.3-1.3c-0.5-0.3-1.2-0.5-2-0.5c-1.2,0-2.2,0.6-2.7,1.7s-0.9,2.6-0.9,4.3V40.4z"/>
		<path fill="#202126" d="M52.2,46.3l2.5-0.5V34l-2.7-0.5v-3.1h7.5l0.2,2.8c0.4-1,1-1.7,1.7-2.3c0.7-0.5,1.5-0.8,2.4-0.8
			c0.3,0,0.6,0,0.8,0.1s0.5,0.1,0.7,0.1l-0.5,4.7l-2.1-0.1c-0.7,0-1.4,0.1-1.9,0.4c-0.5,0.3-0.9,0.7-1.1,1.2v9.2l2.5,0.5v3.1h-10
			V46.3z"/>
	</g>
	<g id="Layer_2" display="none">
		<g id="thin" display="inline">
			<path fill="none" stroke="#000000" stroke-miterlimit="10" d="M27.6,36.5v-3.7c0,0-4-4.8-10-2c-1.4,0.7-5.1,7.8-1.3,15
				c0.6,1.1,4.7,4.3,10.2,0.6c1.8-1.2,1.5-3.6,1.5-3.6"/>
			<path fill="none" stroke="#000000" stroke-miterlimit="10" d="M35.5,54.7l2.9,1c9.9,1.8,9.4-7.2,9.1-9.5c0-0.3-0.1-0.5-0.1-0.5
				c-1,2.3-4.6,3.3-5.7,3.5c-4.9,0.7-6.8-3.2-7.6-4.8c-1.9-4.1-0.2-11.7,1.5-13.2c6.9-6,11.9,1.7,11.9,1.7l0.1-3.6l-0.2,16.3"/>
			<path fill="none" stroke="#000000" stroke-miterlimit="10" d="M53.7,31.2c0.2,0,3.3,0,3.3,0L57.2,50l0.2-15.5c0,0,2.7-5.8,8-4.4"
				/>
		</g>
	</g>
</g>
<g id="thin_1_">
	<path fill="none" stroke="#000000" stroke-miterlimit="10" d="M27.6,37.7l-0.1-5.1c0,0-5.1-5.8-11.1-0.5c-1,0.9-4.8,6.7-1.3,13.4
		c0.4,0.7,2.3,4.6,6.8,4.1c4.5-0.5,5.9-3.9,5.9-6.7"/>
	<path fill="none" stroke="#000000" stroke-miterlimit="10" d="M46.4,44.4v-3.7v-5.6v-3.8l-1.6,2.9c0,0-6.4-6.2-9.5,0.5
		c-0.6,1.2-2.7,5.4-0.3,10c0.4,0.8,2.2,2.7,3.7,3.3c0,0,3.2-0.1,4.3-1.8c0.8-1.2,3-4.9,3-4.9s0.7,10.1-0.3,11.3
		c-1.1,1.2-5.5,6-11.4,1.4"/>
	<path fill="none" stroke="#000000" stroke-miterlimit="10" d="M53.9,31.9l3.6,1.4l0.2,13.8L54.4,48l3.3-0.7l2.8,0.7l-2.6-0.9V36.6
		c0,0,3.4-7.8,7.5-4.7"/>
</g>
</svg>
