<?xml version="1.0" encoding="utf-8"?>
<!-- Generator: Adobe Illustrator 18.1.0, SVG Export Plug-In . SVG Version: 6.00 Build 0)  -->
<svg version="1.1" xmlns="http://www.w3.org/2000/svg" xmlns:xlink="http://www.w3.org/1999/xlink" x="0px" y="0px"
	 viewBox="0 0 80 80" enable-background="new 0 0 80 80" xml:space="preserve">
<g id="logo">
	<path id="badge" fill="#FFFFFF" stroke="#FFFFFF" stroke-miterlimit="10" d="M63.3,68.5l12.9-22.3c1-1.7,1.4-3.8,1.4-6
		c0-2.2-0.5-4.4-1.4-6L63.3,11.9c-1.9-3.3-6.6-6-10.4-6H27.1c-3.8,0-8.5,2.7-10.4,6L3.8,34.2c-1,1.7-1.4,3.8-1.4,6
		c0,2.2,0.5,4.4,1.4,6l12.9,22.3c1.9,3.3,6.6,6,10.4,6h25.8C56.7,74.5,61.4,71.8,63.3,68.5z"/>
	<g id="thick">
		<path fill="#202126" d="M18.8,45.8c0.9,0,1.6-0.3,2.2-0.8c0.5-0.5,0.8-1.2,0.8-2.1h4.6l0.1,0.1c0,1.9-0.7,3.5-2.2,4.8
			c-1.5,1.3-3.3,1.9-5.5,1.9c-2.8,0-5-0.9-6.5-2.7C10.7,45.3,10,43,10,40.2v-0.5c0-2.8,0.8-5.1,2.4-6.9c1.6-1.8,3.8-2.7,6.7-2.7
			c1.5,0,2.9,0.2,4.1,0.7c1.2,0.5,2.2,1.1,3,1.9l0.1,5.1h-4.2l-0.8-3c-0.3-0.2-0.6-0.4-0.9-0.6C20,34.1,19.5,34,19.1,34
			c-1.4,0-2.5,0.5-3.1,1.6c-0.6,1.1-0.9,2.4-0.9,4.1v0.5c0,1.7,0.3,3.1,0.8,4.1C16.5,45.3,17.4,45.8,18.8,45.8z"/>
		<path fill="#202126" d="M31.6,40.1c0-3,0.7-5.4,2-7.2c1.3-1.8,3.1-2.8,5.5-2.8c1.1,0,2,0.2,2.8,0.7s1.5,1.1,2.1,2l0.4-2.4h4.4
			v18.4c0,2.5-0.8,4.5-2.4,6c-1.6,1.5-3.7,2.2-6.5,2.2c-1,0-2-0.1-3-0.4s-2.1-0.6-3-1.1l0.9-3.6c0.8,0.3,1.6,0.6,2.5,0.8
			c0.8,0.2,1.7,0.3,2.6,0.3c1.2,0,2.2-0.4,2.8-1.1c0.6-0.8,0.9-1.8,0.9-3.2v-1.2c-0.6,0.7-1.2,1.3-2,1.6c-0.8,0.4-1.6,0.6-2.6,0.6
			c-2.3,0-4.1-0.9-5.4-2.6c-1.3-1.7-2-4-2-6.8V40.1z M36.8,40.4c0,1.7,0.3,3,0.8,3.9c0.6,1,1.5,1.4,2.7,1.4c0.8,0,1.4-0.1,2-0.4
			c0.5-0.3,1-0.7,1.3-1.3v-8.2c-0.3-0.6-0.8-1-1.3-1.3c-0.5-0.3-1.2-0.5-2-0.5c-1.2,0-2.2,0.6-2.7,1.7s-0.9,2.6-0.9,4.3V40.4z"/>
		<path fill="#202126" d="M54.7,46.3l2.5-0.5V34l-2.7-0.5v-3.1h7.5l0.2,2.8c0.4-1,1-1.7,1.7-2.3c0.7-0.5,1.5-0.8,2.4-0.8
			c0.3,0,0.6,0,0.8,0.1s0.5,0.1,0.7,0.1l-0.5,4.7l-2.1-0.1c-0.7,0-1.4,0.1-1.9,0.4c-0.5,0.3-0.9,0.7-1.1,1.2v9.2l2.5,0.5v3.1h-10
			V46.3z"/>
	</g>
	<g id="thin_1_" display="none">
		<polyline display="inline" fill="none" stroke="#000000" stroke-miterlimit="10" points="24.9,35.9 22.6,33.1 20.3,31.5 
			16.8,31.5 14.5,33.1 11.9,35.7 10.5,39.4 10.5,41.7 11.9,45.2 14.4,47.4 16.8,48.5 20.3,48.5 22.6,47.4 24.9,45.2 		"/>
		<polyline display="inline" fill="none" stroke="#000000" stroke-miterlimit="10" points="47.5,44.2 45.1,46.4 42.8,47.5 
			39.3,47.5 37.3,46.4 35.2,44.2 34.5,40.7 34.5,38.4 35.2,34.7 37,32.1 39.3,30.5 42.8,30.5 45.1,32.1 47.5,34.9 46.5,32 46.5,50 
			45.8,53.5 44.9,55 42.8,56.5 39.3,56.5 36.5,55.3 		"/>
		<polyline display="inline" fill="none" stroke="#000000" stroke-miterlimit="10" points="68,30.5 65.2,30.5 62.8,32 60.4,34.7 
			59,37.9 59.5,32 59.5,49 		"/>
	</g>
</g>
<g id="Layer_2" display="none">
	<g id="thin">
		<path display="inline" fill="none" stroke="#000000" stroke-miterlimit="10" d="M25.5,37v-3.7c0,0-4-4.8-10-2
			c-1.4,0.7-5.1,7.8-1.3,15c0.6,1.1,4.7,4.3,10.2,0.6c1.8-1.2,1.5-3.6,1.5-3.6"/>
		<path display="inline" fill="none" stroke="#000000" stroke-miterlimit="10" d="M35.5,54.7l2.9,1c9.9,1.8,9.4-7.2,9.1-9.5
			c0-0.3-0.1-0.5-0.1-0.5c-1,2.3-4.6,3.3-5.7,3.5c-4.9,0.7-6.8-3.2-7.6-4.8c-1.9-4.1-0.2-11.7,1.5-13.2c6.9-6,11.9,1.7,11.9,1.7
			l0.1-3.6l-0.2,16.3"/>
		<path display="inline" fill="none" stroke="#000000" stroke-miterlimit="10" d="M54.7,31.2c0.2,0,3.3,0,3.3,0L58.2,50l0.2-15.5
			c0,0,2.7-5.8,8-4.4"/>
	</g>
</g>
</svg>
