<?xml version="1.0" encoding="utf-8"?>
<!-- Generator: Adobe Illustrator 18.1.0, SVG Export Plug-In . SVG Version: 6.00 Build 0)  -->
<svg version="1.1" xmlns="http://www.w3.org/2000/svg" xmlns:xlink="http://www.w3.org/1999/xlink" x="0px" y="0px"
	 viewBox="0 0 20 20" enable-background="new 0 0 20 20" xml:space="preserve">
<g id="Layer_2">
</g>
<g id="Layer_3" display="none">
	<rect display="inline" fill="#FFFFFF" width="20" height="20"/>
</g>
<g id="Layer_1">
	<circle fill="#9B9B9B" cx="10.9" cy="9.8" r="8.6"/>
	<g>
		<path fill="#3A3A3A" d="M14.5,18.7c-0.9,0.4-2.6,0.9-4.9,0.9c-5.2,0-9.1-3.3-9.1-9.4c0-5.8,3.9-9.7,9.7-9.7c2.3,0,3.8,0.5,4.4,0.8
			L14,3.2c-0.9-0.4-2.2-0.8-3.7-0.8C5.9,2.5,3,5.2,3,10.1c0,4.5,2.6,7.4,7.1,7.4c1.5,0,2.9-0.3,3.9-0.8L14.5,18.7z"/>
	</g>
	<text transform="matrix(1 0 0 1 5.4535 13.1105)" fill="#515151" font-family="'LucidaSans-Italic'" font-size="11.3697">g</text>
	<text transform="matrix(1 0 0 1 10.6147 13.1105)" fill="#515151" font-family="'LucidaSans-Italic'" font-size="11.3697">R</text>
</g>
</svg>
