<?xml version="1.0" encoding="utf-8"?>
<!-- Generator: Adobe Illustrator 18.1.0, SVG Export Plug-In . SVG Version: 6.00 Build 0)  -->
<svg version="1.1" id="Layer_1" xmlns="http://www.w3.org/2000/svg" xmlns:xlink="http://www.w3.org/1999/xlink" x="0px" y="0px"
	 viewBox="0 0 80 80" enable-background="new 0 0 80 80" xml:space="preserve">
<path fill="#FFFFFF" stroke="#FFFFFF" stroke-miterlimit="10" d="M68.3,16.9L46,4c-1.7-1-3.8-1.4-6-1.4c-2.2,0-4.4,0.5-6,1.4
	L11.7,16.9c-3.3,1.9-6,6.6-6,10.4v25.8c0,3.8,2.7,8.5,6,10.4L34,76.4c1.7,1,3.8,1.4,6,1.4c2.2,0,4.4-0.5,6-1.4l22.3-12.9
	c3.3-1.9,6-6.6,6-10.4V27.3C74.3,23.5,71.6,18.8,68.3,16.9z"/>
<text transform="matrix(1 0 0 1 10.5989 48.3701)" fill="#626572" font-family="'RobotoSlab-Bold'" font-size="35.8746">cgr</text>
</svg>
